<svg xmlns="http://www.w3.org/2000/svg" xmlns:xlink="http://www.w3.org/1999/xlink" viewBox="0 0 1084.77 805.94"><defs><linearGradient id="a" x1="822.82" x2="822.82" y1="797.01" y2="304.35" gradientUnits="userSpaceOnUse"><stop offset="0" stop-color="#808080" stop-opacity=".25"/><stop offset=".54" stop-color="#808080" stop-opacity=".12"/><stop offset="1" stop-color="#808080" stop-opacity=".1"/></linearGradient><linearGradient id="b" x1="258.73" x2="258.73" y1="794.35" y2="303.01" xlink:href="#a"/><linearGradient id="c" x1="255.59" x2="255.59" y1="323.37" y2="322.54" xlink:href="#a"/><linearGradient id="d" x1="253.51" x2="253.51" y1="322.46" y2="321.18" xlink:href="#a"/></defs><title>smiley face</title><path fill="#efeff4" d="M598.97 111.4c-64.72-2.24-126.36-23.14-185.22-46S296.6 17.22 233.38 5.1c-40.63-7.8-87.1-8.9-119.83 12.9-31.5 21-41.7 57.14-47.16 90.72-4.13 25.26-6.55 51.85 4.73 75.5 7.84 16.42 21.75 30.22 31.36 45.94 33.46 54.73 9.8 122.2-26.46 175.64-17 25.06-36.75 49-49.88 75.65S7 538.7 18.5 565.97c11.37 27 38.5 47.24 67.9 61.5 59.68 28.94 130 37.22 198.6 41.92 151.83 10.37 304.46 5.88 456.7 1.37 56.33-1.67 112.9-3.35 168.33-12.07 30.78-4.83 62.55-12.5 84.9-31 28.36-23.53 35.4-63.37 16.38-92.88-31.87-49.5-120-61.78-142.3-114.9-12.26-29.23.33-61.8 18.16-88.9 38.24-58.17 102.33-109.2 105.7-175.68 2.32-45.66-28.5-91.4-76.13-113-49.93-22.64-119.18-19.8-156 17.7-37.95 38.5-104.6 53.35-161.76 51.36z" opacity=".1"/><path fill="#efeff4" d="M103.94 684.07s21-3.36 33.6 11.48c0 0-9.24 7.28-29.12-2.8zM101.7 683.75s-13.4 16.52-6.83 34.84c0 0 10.92-4.38 12.1-26.64zM89.66 656.63s8.4-15.4 42 6.16c0 0-4.48 10.35-19.32 9.5s-18.76-7.55-22.68-15.67zM87.5 655.52s-17.44-2-19.13 37.9c0 0 11 2.3 18.9-10.32s4.6-19.7.22-27.58zM77.38 623.7s9.8-27.17 45.36-7.84c0 0-8.12 24.92-41.72 17.08zM66.38 583.1s18.5-27.45 51.25-2c0 0-11.48 25.76-48.45 11.75zM62.5 544.45s21.56-25.2 54.04 0c0 0-20.44 22.12-54 6.44zM59.13 506.97s21.85-26.32 52.93-1.4c0 0-24.64 23.24-52.93 7.56zM61.1 473.6s23-33.88 52.08-10.92c0 0-24.64 29.13-52.1 17.37zM66.38 434.68s24.37-33.6 52.65-7.84c0 0-28.84 29.12-52.65 14zM74.54 399.9s28.84-31.58 54-19c0 0-30.06 33.52-55.26 27.36zM84.62 366.97s33.32-38.65 52.64-25.76c0 0-24.52 30-55 33zM99.17 328.66s29.13-31.58 50.4-23.7c0 0-24.9 32.78-54.3 33.62zM112.38 292.88s32.2-30.24 46.2-24.92c0 0-23.24 33.6-47.6 31.64zM125.22 259.84s27.72-36.12 42.84-33.32c0 0-16.8 32.2-42.84 37zM139.2 215.3s24.5-27.7 37.73-27.63c0 0-19.34 37-38.74 36.66zM147.48 185.64l23.66-57.67s1.2 52.14-26.67 68.4zM157.1 122.02s3.9-48.16 1.4-52.08c0 0 16.9 40-1.58 73.36zM76.38 623.05s-24.54-15.2-40.43 22c0 0 21.84 14.5 43.3-12.5zM65.63 581.55s-30.1-13.74-44.7 25.12c0 0 23.25 15.95 47.44-15.3zM61.1 546.76s-21.57-25.2-54 0c0 0 20.43 22.12 54 6.44zM58.38 506.97s-21.84-26.32-52.93-1.4c0 0 24.65 23.24 52.93 7.56zM61.1 474.56s-15.33-38-48.63-21.63c0 0 18 33.66 47.27 27.93zM68.38 434.5s-15.22-38.62-49-20.7c0 0 20.68 35.37 47.5 26.66zM77.78 400.1s-6-42.34-33.95-46.13c0 0 5.93 44.64 30.22 53.75zM85.38 366.97s-2.34-51-25.5-52.77c0 0 .8 38.7 22.9 60zM101.57 327.2s-6.9-42.4-29-47.6c0 0 2.74 41.1 26.82 58zM114.96 293.2s-.24-44.2-13.73-50.68c0 0-8.38 40 9.82 56.3zM126.25 259.35s-1.87-45.5-15.87-51.9c0 0-4.8 36 13.77 54.88zM141.15 218.97s-.1-37-10.06-45.67c0 0-9.94 40.53 4.84 53.1zM146.3 183.8l-9.7-61.57s-13.22 50.46 10.17 72.74zM148.2 122.6s-24.92-41.4-24.4-46c0 0 2.64 43.4 34 65zM151.12 110.38s-23.52-58.8-34.16-63.57c0 0 33.6 17.1 36.12 61.9z"/><path fill="#444053" d="M138.06 224.68l-1.6-.5c19.85-64.73 24.8-106 13.94-116.34l1.16-1.22c11.5 10.9 6.82 51.74-13.5 118.06zM83.38 376.2l-2.38-.85c2.1-5.93 4.38-11.95 6.76-17.9 20.72-51.62 38.35-99.66 49.67-136.54l2.06-1c-11.34 37-28.66 86.84-49.4 138.54-2.34 5.87-4.6 11.85-6.72 17.75zM133.5 732.52c-.33-.36-32.5-36.58-54.93-98.44a364.42 364.42 0 0 1-21.7-112.77c-1.53-48.12 8.56-101.87 25.87-150.68l1.88 2.2c-38.84 109.56-23.4 203.45-2.94 260 22.2 61.3 54 97.13 54.3 97.48z"/><ellipse cx="529.83" cy="734.49" fill="#efeff4" rx="446.98" ry="41.12" opacity=".1"/><circle cx="503.74" cy="449.31" r="308.5" fill="#efeff4"/><ellipse cx="421.09" cy="389.51" fill="#444053" rx="31.99" ry="41.9"/><ellipse cx="586.39" cy="389.51" fill="#444053" rx="31.99" ry="41.9"/><path fill="#444053" d="M702.55 521.3c0 60.15-100.48 161.48-201.86 161.48s-198-103.6-198-163.77 94.56-5.13 196-5.13 203.85-52.73 203.85 7.43z"/><path fill="#f6f8fb" d="M334.6 531.58s182.23 40.56 335.34 1.14c0 0 18.74 0 5.94 21.66a34.5 34.5 0 0 1-14 13.13c-29.5 15.1-138.8 59.66-313.5 2.82a34.36 34.36 0 0 1-22.68-23.23c-2.02-7.45-1.14-14.5 8.9-15.52z"/><path d="M352.15 219.65s-92.93 59.42-92.17 152.32 92.17-152.32 92.17-152.32z" opacity=".05"/><path fill="url(#a)" d="M976.6 775.16c-1.6-6.37-5.47-6.48-5.47-6.48l-.06-.64-1.43-15.73a.88.88 0 0 1-.2.22l-.08-2a10.54 10.54 0 0 0-.1-1.13 13.12 13.12 0 0 0 4.8-6.72c-.58-.75-.14-.6-.14-.6s-9.7-9.94-8.74-15.12-7.3-10.8-7.3-10.8-3-9.27-3-12.08-11.35-21.26-11.35-21.26-10-23.47-18.78-33.55-8-15.57-8-15.57a18.75 18.75 0 0 1-1.95-3.4 21.83 21.83 0 0 1-1-2.57c1.8-.23 3-.27 3-.27s7.2-1.23 7.5-2.7a9.4 9.4 0 0 1 2.46-4.43c1.37-1.47-3.9-29.47-1.1-36.7s-3.6-40.47-3.6-40.47a7.37 7.37 0 0 1 3.18-5l4.24-1.67 2.15-.53.3-.07.43-.1 1-.26.3-.08.6-.17.24-.07 1-.3.33-.12.47-.15.36-.14.48-.18.53-.25.3-.16.34-.18.27-.17a4.08 4.08 0 0 0 .4-.3l.2-.2a2.85 2.85 0 0 0 .22-.27 1.37 1.37 0 0 0 .12-.2l.06-.08a2.16 2.16 0 0 0-.2-2.24 17.07 17.07 0 0 0-3.8-3.9l-2.32-3.56a.15.15 0 0 1 0-.07c0-.18.07-.38.12-.58a6.7 6.7 0 0 0 .1-2.28.53.53 0 0 0 0-.13 5.8 5.8 0 0 0 .06-.72v-.3c0-.24 0-.47-.05-.7s0-.23 0-.35-.1-.44-.14-.66-.06-.25-.1-.38-.1-.4-.18-.62l-.15-.4c-.07-.2-.15-.4-.23-.6s-.12-.28-.2-.42-.15-.36-.24-.54-.15-.3-.22-.43-.18-.33-.28-.5l-.24-.42-.28-.46-.27-.42-.27-.4-.27-.4c-.1-.12-.18-.25-.27-.36l-.26-.36-.24-.3-.25-.33-.2-.26-.22-.28-.17-.2-.17-.2-.12-.14-.12-.14-.07-.08-.06-.07v-.13c0-.06 0-.13 0-.22v-.1c0-.1 0-.2 0-.3v-.12c0-.14 0-.3-.06-.47v-.06a30.36 30.36 0 0 1-.25-3.13 8.22 8.22 0 0 1 .72-3.16 1.5 1.5 0 0 0-.07-1.56 2 2 0 0 1 .1-.2c.7-1.34-.62-2.48-2.26-3.33 0-2.43-1-7.38-9.08-8.27 0 0-4.73-3.2-.16-8.92s-2.7-20.38-2.7-20.38-2.3-6-1.06-8.48-1.44-24.54-1.44-24.54 0-20.35-4.5-29-7.57-24.18-12.76-26.48-9.3-7.86-9.3-7.86l-2.42.78c-.42-.62-.84-1.24-1.24-1.86a4.3 4.3 0 0 0 .57-.2 5.55 5.55 0 0 0 2.6-2.43 6.63 6.63 0 0 0 .44-.94 10.55 10.55 0 0 0 .58-3.65 18.48 18.48 0 0 1 .1-3.72c.42-2 1.8-3.6 3-5.27a24.34 24.34 0 0 0 4.5-11.3 17.1 17.1 0 0 0-2.85-11.65c-1.18-1.65-2.7-3.12-3.45-5-.34-.85-.5-1.77-.75-2.65a13.22 13.22 0 0 0-11.28-9.08c-4.25-.4-8.44 1.23-12.7 1.18-4.94-.06-10-2.32-14.63-.6a14.4 14.4 0 0 0-5.36 4 42 42 0 0 0-3.14 3.9c-.57.8-1.1 1.62-1.62 2.46v.08c-.52.85-1 1.72-1.46 2.6a.9.9 0 0 0-.07.67 1.2 1.2 0 0 0 .6.57 6.88 6.88 0 0 1 2.22 1.28 7.65 7.65 0 0 0 .8.8c-.13.17-.28.33-.42.5a25.32 25.32 0 0 0 9.55 38.74l.5 1.12a47.3 47.3 0 0 1 2.42 6.56l-2.18.2a2.74 2.74 0 0 1-2.58 2.63c-2.55.27-10.66 3.27-10.66 3.27s-12.2 6.2-19.54 8.18-10.6.3-10.6.3-.84 5.33-9.16 2.4-9.42.15-9.42.15-23.44-.64-40.5 1.64-24.52.67-24.52.67-.08.9-.17 2.36l-1.74-1c-11.34-6.06-32.25-15.46-35.23-4-4.16 15.93 32.37 22.7 32.37 22.7l2.7-.3 1.77-.18c.34 4.42 1.12 8 2.75 8.4.6.14 18.07.1 22.67 2.25s14.5-1 14.5-1 2.55-.56 6.4 1.72 24.77 2.3 24.77 2.3 1.5.3 6.84 1.88 14.8.2 14.8.2l22.07 2.86s1.57 15.47-.16 21.1-.33 33.26-.33 33.26 5 33.65 3.63 37.64c-1.08 3.1 8.5-.35 12.88-2.06.23.9.52 2 .85 3.23 0 .1.15.18.32.22l.36.24c.17.65.33 1.3.48 1.9l-1.2.3 1.58 1.06a17.37 17.37 0 0 0 .63 1.87c1.3 3-8.2 8.5-8.2 8.5s-26.2 14.32-34.08 21c0 0-6.15 2-6.63 3.9s-6 1.25-6 1.25-.8 2.07-1.42 4.15-4 5.3-4 5.3-7.8 1.2-8.9 5.35a85.4 85.4 0 0 0-1.78 9.72l-8.75 15.92S752.7 617.7 750.2 624.5l-16.9 11.32s-2.78 6.2-7.7 6.42-13.45 9-13.45 9 2.5 1 6.17 2.7c-.22.34-.43.68-.6 1a16.05 16.05 0 0 0-1.5 4.07s-11 6.7-19.18 3.9c-4.62-1.6-13.73-4.32-20.32-4.65-5.07-.25-8.67.92-7.62 5.13 1.8 7.27 19.84 25.57 28.74 34.25a48.22 48.22 0 0 0 4.47 3.85 45.8 45.8 0 0 0 6.6 4.22 44.76 44.76 0 0 0 4.16 1.92 34 34 0 0 0 4.7 1.5c3.13.74 6 .7 7.6-1 5.16-5.27 3-9 3-9l.58-.42 14.22-10.64 3.22-2.75.9-.75a19.08 19.08 0 0 1-4.82 10.48 67.3 67.3 0 0 1 11.13-5.18c5-1.56 8.07-11 8.07-11s2.73-2.78 7.58-7.76 5.75-17.74 5.75-17.74 24.9-15.84 35-34.1c0 0 1.83-2.5 5-6.18s3.28-9.76 3.28-9.76.47-1.77 4.72-6.3 3.7-7.4 3.7-7.4 2-2.78 9.44-2.22 24.92-8.26 24.92-8.26 0 .8.16 2.2c-1.52 3.5-2.52 5.94-2.52 5.94s15.24 60.83 9.13 70.4c-3.17 5 5.57 1.2 14.73-3.58.47.57 1 1.17 1.58 1.8a78 78 0 0 0 6.92 6.6l.3.27s18.56 28.64 21.5 32 1 13.24 1 13.24 5.18 34.54 12.26 40.6a16.88 16.88 0 0 0 4.88 2.56c-.12 4.3 3.77 7.83 3.77 7.83s-.08 11.43-6.06 16.27c-3.37 2.75-9.74 8.33-13.1 13.14-2.56 3.72-3.36 7 .34 8.17 6.4 2.07 28.83-2.93 39.64-5.56a41.4 41.4 0 0 0 14.77-6.77c3.74-2.75 7-6.08 6.26-9.07zM730.45 660.72c.62.4 1.23.83 1.84 1.26l-1 .8-.4.32c0-.2-.07-.44-.1-.67-.12-.55-.22-1.12-.34-1.7z" transform="translate(-57.62 -47.03)"/><path fill="#d17483" d="M675.65 361.97l-11.27 1.2-2.66.28s-36-6.7-31.9-22.45c2.94-11.4 23.56-2.07 34.75 4 4.28 2.3 7.17 4.13 7.17 4.13z"/><path fill="#dce6f2" d="M702.13 628.05l-12.34 10.6-3.2 2.74-7.4 2.23-18.32-16.18 13.62-10.86.4-.34 11.02-8.78 16.2 20.57zM898.16 692.72l-17.42.8 4.78 21.3 6.53 2.25 18.2-1.52-.5-12.22a11.08 11.08 0 0 0-11.6-10.6z"/><path d="M674.38 615.97a97.85 97.85 0 0 0-12.87-7.4 9.08 9.08 0 0 1 6-5c3.95-.83 5.96 6.8 6.88 12.4zM689.78 638.66c.75-8.9-6.7-16.64-14.88-22.4l11-8.78 16.2 20.57z" opacity=".1"/><path fill="#bdd2e8" d="M914.38 695.55c-5.1 16.87-40.26 11.8-47.24 5.8s-12.1-40.26-12.1-40.26 1.92-9.86-1-13.15-21.2-31.7-21.2-31.7-.2-.17-.3-.25a77 77 0 0 1-6.83-6.55c-5.62-6.17-5.74-9.15-5.74-9.15s-2-11.68-8.9-27.54c-5-11.7-7.06-27.6-7.77-35.15-.26-2.68-.35-4.3-.35-4.3s-17.22 8.73-24.58 8.18-9.32 2.22-9.32 2.22.55 2.8-3.64 7.32-4.65 6.26-4.65 6.26-.1 6.05-3.24 9.68-4.94 6.12-4.94 6.12c-10 18.13-34.54 33.84-34.54 33.84s-.9 12.66-5.7 17.6-7.5 7.7-7.5 7.7-3.07 9.4-8 10.94a65.5 65.5 0 0 0-11 5.14c20.26-24.3-29.86-43.47-29.86-43.47s8.38-8.72 13.25-8.94 7.62-6.38 7.62-6.38l16.66-11.25c2.46-6.75 26-24.38 26-24.38l8.63-15.8a84.47 84.47 0 0 1 1.78-9.56c1.08-4.1 8.77-5.32 8.77-5.32s3.3-3.2 3.9-5.25 1.4-4.1 1.4-4.1 5.43.67 5.9-1.25 6.54-3.88 6.54-3.88c7.76-6.67 33.6-20.88 33.6-20.88s9.37-5.46 8.1-8.43a16.1 16.1 0 0 1-.64-1.85c0-.06 0-.1 0-.16q-.17-.57-.33-1.2c-1.18-4.57-2.48-11.58-2.48-11.58s45.5-26.45 60.42-19.74c4.36 1.95 6.9 6.87 8.23 13.15 2.13 10.05 1.16 23.57-.47 33.95a97.56 97.56 0 0 1-2.73 12.65c-3.56 11.45-4.25 28.38-4.25 28.38s-.47 32.27-1.62 40.2a19.64 19.64 0 0 0 1.7 10.83 18.64 18.64 0 0 0 1.93 3.38s-.82 5.44 7.88 15.45 18.52 33.26 18.52 33.26 11.23 18.3 11.2 21.1 2.9 12 2.9 12 8.18 5.56 7.22 10.7 8.62 15 8.62 15-.4-.16.18.6z"/><path d="M798.05 487.68s9.8 4.7 10.6 10.33-10.6-10.32-10.6-10.32zM760.6 520l5.35 6.27-2.78-11.4-5.9-.37 3.32 5.5zM754.38 533.32c.58.45 7.15 15.14 8.9 15.3s-8.9-15.3-8.9-15.3zM862.87 491.97a97.56 97.56 0 0 1-2.73 12.65c-3.56 11.45-4.25 28.38-4.25 28.38s-.48 32.27-1.63 40.2a19.64 19.64 0 0 0 1.7 10.83c-3 .3-8.57 1.16-12.37 3.6-5.35 3.47-2.25 12.95-2.25 12.95s-7.7 4.64-15.6 8.84c-5.64-6.17-5.76-9.15-5.76-9.15s-2-11.68-8.9-27.54c-5-11.7-7.07-27.6-7.78-35.15 3-7 7.95-17.78 11.28-22.43 3.53-4.93-.68-19.85-3.62-28.58l-.8-.55-9.68-6.5-2.94-2-1.54-1 1.17-.3 66.18-18.17c2.1 10.05 1.12 23.57-.5 33.92z" opacity=".1"/><path fill="#653c5b" d="M796.04 473.9l4.48 3 9.66 6.48.82.55c2.94 8.73 7.15 23.65 3.6 28.58-5.1 7.16-14 28.85-14 28.85s15 60.34 9 69.83 31.78-13.2 31.78-13.2-3.1-9.5 2.26-12.95 14.35-3.77 14.35-3.77 7.08-1.22 7.4-2.7a9.2 9.2 0 0 1 2.42-4.37c1.34-1.47-3.85-29.25-1.1-36.43s-3.54-40.14-3.54-40.14a7.32 7.32 0 0 1 3.14-5 9.25 9.25 0 0 1 2.58-1.24l.57-.17c.34-.1.7-.2 1-.26 4.3-1.07 9-2 10-4l-1-1.52-5.27-8.14a6.06 6.06 0 0 1 .15-2.37c0-.16.06-.33.08-.5.77-5.18-5.2-11.48-5.2-11.48a30 30 0 0 1-.47-4.48v-.05a11.15 11.15 0 0 1 .64-4.68z"/><path d="M812.9 485.4c-.53-.12 32.25 1.05 42.38 14 0 .02.36-4.7-42.4-14zM838.73 506.97s6.54 47 5.1 55.2 7.6 2.9 7.6 2.9 9.26-68.22-12.7-58.1zM880.54 486.97a4.2 4.2 0 0 0-.24-.47c-2.2-3.7-6.77-4.47-6-9.2 0-.18.07-.4.12-.6a6.58 6.58 0 0 0 .1-2.26c-.52-4.76-5.23-9.72-5.23-9.72a29.36 29.36 0 0 1-.44-6.25 0 0 0 0 1 0-.05 8.15 8.15 0 0 1 .7-3.13 1.46 1.46 0 0 0-.06-1.56c-1.22-2.07-6.63-3.4-6.63-3.4l-36.65 5.8c-4.33 1.48-8.46 3-12.23 4.45-11.32 4.3-19.34 7.9-19.34 7.9l.27 1.07c.24 1 .64 2.55 1.13 4.34.16.63 3.2-.1 3.38.56l1.12 2.46 8.1 2.24s.65 1.65 1.56 4.25c0 .16.1.32.16.48l.66.1c15.3 1.87 36.47 4.86 55.3 8.67z" opacity=".1"/><path fill="#653c5b" d="M869.47 491.23l-.57.16c-19.7-4.13-42.5-7.34-58.52-9.3-1-2.87-1.72-4.7-1.72-4.7l-12.06-3.35-.33-1.16c-.58-2.1-1.06-4-1.34-5.1l-.27-1.08s8-3.6 19.33-7.9c3.76-1.45 7.9-3 12.23-4.46l36.64-5.8a24.1 24.1 0 0 1 3.9 1.37c1.87.87 3.57 2.1 2.8 3.6-1.5 2.9-.27 9.4-.27 9.4s6.38 6.73 5.13 12 3.6 5.96 5.9 9.82-4.95 4.94-10.86 6.48z"/><path fill="#d17483" d="M835.82 332.76s-48.1 3.86-42.58-.48c2.76-2.17.86-8.63-1.74-14.54a105.4 105.4 0 0 0-5.85-11.2s36.56-10.57 32.64-4.57c-1.17 1.77-.12 5.18 2 9.1 4.88 9.4 15.52 21.7 15.52 21.7z"/><path d="M820.26 311.1c-1 1.2-3.6-.22-4.84.76-4.37 3.42-8.5 7.95-14.48 7.86a25.1 25.1 0 0 1-9.44-2 105.4 105.4 0 0 0-5.85-11.2s36.56-10.55 32.64-4.55c-1.17 1.8-.12 5.2 1.96 9.14z" opacity=".1"/><path fill="#d17483" d="M826.5 293.97a25.2 25.2 0 1 1-24.82-25.56 25.1 25.1 0 0 1 24.83 25.57z"/><path d="M867.2 454.2a50.5 50.5 0 0 1-11.77-1.23c-6.17-1.42-11.4 4.1-11.4 4.1s-12 4.7-17.45 3.74-29.35 11.66-29.35 11.66l-1 .4c-.58-2.1-1.06-4-1.34-5.1l-.28-1.08s8-3.6 19.33-7.9c3.77-1.45 7.9-3 12.24-4.46l36.63-5.8a24.1 24.1 0 0 1 3.9 1.37 8.32 8.32 0 0 1 .48 4.3zM675.65 361.97l-11.27 1.2a140.9 140.9 0 0 1 .2-18.22c4.27 2.3 7.16 4.13 7.16 4.13z" opacity=".1"/><path fill="#dce6f2" d="M826.9 317.3s-7.1 2.25-11.1 3.82-24.07 3.33-24.07 3.33a2.7 2.7 0 0 1-2.54 2.62c-2.52.25-10.52 3.23-10.52 3.23s-12 6.16-19.28 8.12-10.47.3-10.47.3-.8 5.28-9 2.36-9.3.16-9.3.16-23.12-.63-40 1.63-24.17.68-24.17.68-2.2 26.52 2.4 27.74c.58.15 17.83.1 22.36 2.23s14.3-1 14.3-1 2.53-.55 6.33 1.72 24.43 2.27 24.43 2.27 1.47.3 6.75 1.87 14.58.2 14.58.2l21.78 2.85s1.55 15.35-.15 20.92-.34 33-.34 33 5 33.38 3.58 37.34 14.77-2.87 14.77-2.87 23.92-12.62 29.35-11.66 17.45-3.72 17.45-3.72 5.24-5.53 11.4-4.1a50.06 50.06 0 0 0 11.78 1.2s1.74-8.38-8.85-9.57c0 0-4.67-3.16-.17-8.84s-2.62-20.17-2.62-20.17-2.27-5.93-1.06-8.42-1.4-24.33-1.4-24.33 0-20.2-4.45-28.8-7.47-24-12.6-26.27-9.16-7.85-9.16-7.85z"/><path d="M800.13 384.97s31.2 13.87 39.57 25.05-39.57-25.05-39.57-25.05zM812.46 408.75s37.7 21.92 35.12 27.48-35.12-27.48-35.12-27.48zM818.62 430.8s13.63 5.5 16.1 8.64-16.1-8.64-16.1-8.64zM756.2 345.3s28.8 15.45 23.86 21.72-23.86-21.72-23.86-21.72zM744.7 356.2s4.7 11 4.82 12.88-8.68-11.33-4.82-12.9zM725.38 359.15c0 .6 15 9.8 8.8 12.2s-8.8-12.2-8.8-12.2zM736.8 544.56c.43.6 2 6.36 6.8 8.94s-6.8-8.94-6.8-8.94zM691.8 588.26c-.07 4.86-.9 20.33 3.07 22s-3.07-22-3.07-22zM702.8 601.97s9.06 15.3 5.93 17.92-6.73-3.65-6.73-3.65zM864.13 635.28a50.87 50.87 0 0 0 11.18.9c6.08-.2-11.17-.9-11.17-.9zM859.38 627.84s11.17 2.08 15.18-.07-15.18.07-15.18.07zM854.98 615.97s11.18.9 13.45-2.9-13.45 2.9-13.45 2.9zM851.83 609.75s10.73 1.78 12.53-.7-12.53.7-12.53.7zM841.38 587.2s11.56 5.47 12.84 8.6-12.84-8.6-12.84-8.6zM826.5 293.97a25.1 25.1 0 0 1-9.68 19.5c-.07-.14-.13-.27-.2-.4-1.1-2.35-1.37-5-2.4-7.34a3.55 3.55 0 0 0-1.77-2.05c-1.62-.63-3.23.85-4.3 2.18s-2.66 2.83-4.3 2.24a4.07 4.07 0 0 1-2-2.1c-1.66-3-3.4-6.18-3.5-9.6a42.74 42.74 0 0 0 .06-5.06c-.42-2.94-2.63-5.4-5.17-7.07a64.7 64.7 0 0 0-8.25-4 12.25 12.25 0 0 1-3.5-2.24 25.2 25.2 0 0 1 45 15.94z" opacity=".1"/><path fill="#653c5b" d="M778.38 274.3c-.6 1.4 1.7 1.28 2.72 2.48a11.18 11.18 0 0 0 3.9 2.64 66.8 66.8 0 0 1 8.24 4c2.55 1.67 4.75 4.13 5.18 7.08a44.8 44.8 0 0 1-.05 5.05c.1 3.43 1.83 6.58 3.5 9.6a4.2 4.2 0 0 0 2 2.1c1.64.6 3.2-.9 4.3-2.23s2.68-2.8 4.3-2.2a3.56 3.56 0 0 1 1.77 2.06c1 2.37 1.3 5 2.4 7.35s3.46 4.47 6.1 4.12a5.25 5.25 0 0 0 3.73-2.74 9.28 9.28 0 0 0 1-4.54 18.16 18.16 0 0 1 .1-3.7c.42-2 1.77-3.57 2.93-5.22a24.22 24.22 0 0 0 4.4-11.17 17.07 17.07 0 0 0-2.8-11.56c-1.16-1.64-2.68-3.1-3.4-5-.34-.84-.5-1.75-.75-2.63a13.05 13.05 0 0 0-11.13-9c-4.18-.4-8.32 1.22-12.52 1.17-4.87-.05-9.9-2.3-14.44-.6a14.12 14.12 0 0 0-5.27 4 40.48 40.48 0 0 0-6.2 9"/><path fill="#ffd6db" d="M672.58 651.97l-.58.43s2.16 3.72-2.93 9c-2.4 2.45-7.44 1.33-12.13-.54a46 46 0 0 1-15-9.9c-8.77-8.62-26.58-26.77-28.35-34-1-4.2 2.5-5.35 7.5-5.1 6.5.33 15.5 3 20 4.6 8.07 2.78 18.92-3.84 18.92-3.84a16.32 16.32 0 0 1 1.47-4 9.08 9.08 0 0 1 6-5c3.9-.8 5.9 6.84 6.83 12.4 0 .2.07.44.1.66.45 2.77.62 4.88.62 4.88 6.93-.48 9.88 9.58 9.5 14.73s2 5.18 2 5.18z"/><path fill="#c8a9b4" d="M672 652.37s2.16 3.72-2.93 9c-2.4 2.45-7.44 1.34-12.13-.54a45.85 45.85 0 0 1-15-9.9c-8.78-8.62-26.58-26.77-28.35-34-1-4.2 2.5-5.35 7.5-5.1.44 4.22 1.52 10 4.16 13.07 4.5 5.22 17.35 22.8 33.42 23a25 25 0 0 1 13.92 4z"/><path d="M642.92 635.74s15.5-11.86 28.53-6.5c0 0-11.48-.92-28.53 6.5zM660.5 632.9s14.8 4.64 17.76 4.68-15.24-5.82-17.77-4.68zM876.9 668.45s17.8.37 18.37 4.4-6.64 3.8-6.64 3.8z" opacity=".1"/><path fill="#ffd6db" d="M911.43 720.68l.06.64s3.82.12 5.4 6.43c.73 3-2.5 6.27-6.13 9a40.9 40.9 0 0 1-14.57 6.73c-10.66 2.6-32.8 7.56-39.1 5.52-3.65-1.2-2.86-4.42-.32-8.1 3.3-4.78 9.58-10.3 12.92-13 5.9-4.8 6-16.15 6-16.15s-5.23-4.76-3.32-9.93 17.15 2.7 17.15 2.7c2.9-5.48 11.9-3 15.64-.28s4.87.94 4.87.94z"/><path fill="#c8a9b4" d="M911.5 721.32s3.82.12 5.4 6.43c.73 3-2.5 6.27-6.13 9a40.9 40.9 0 0 1-14.57 6.73c-10.66 2.6-32.8 7.56-39.1 5.52-3.65-1.2-2.86-4.42-.32-8.1 3.4 1.65 8.28 3.55 11.86 3 6.07-1 25.45-2.44 33.18-14.5a22.35 22.35 0 0 1 9.6-8.67z"/><path d="M885.2 735.56s-1.7-17.33 8.48-24.7c0 0-6.1 8.28-8.5 24.7zM891.3 720.9s10.5-9 11.9-11.28-11.57 8.82-11.9 11.27zM868.1 463.06s-13.5 7-23.33 4.23 23.34-4.24 23.34-4.24zM872.92 477.13s-2.12 3.8-15.37 2.87 15.37-2.87 15.37-2.87z" opacity=".1"/><g opacity=".1"><path d="M829.92 300.97l.56-.78c.4-.6.8-1.2 1.16-1.83a24.35 24.35 0 0 0-1.72 2.6zM824.32 313.97c-2.63.35-5-1.78-6.1-4.12s-1.38-5-2.4-7.35a3.56 3.56 0 0 0-1.77-2.05c-1.62-.62-3.23.86-4.3 2.2s-2.66 2.8-4.3 2.23a4.13 4.13 0 0 1-2-2.1c-1.68-3-3.4-6.18-3.5-9.6a45 45 0 0 0 0-5.06c-.43-2.95-2.64-5.4-5.2-7.07s-5.47-2.7-8.24-4a11.14 11.14 0 0 1-3.87-2.64c-1-1.2-3.34-1.06-2.72-2.48.47-.92 1-1.8 1.5-2.7a41.44 41.44 0 0 0-3.08 5.1c-.6 1.43 1.7 1.3 2.72 2.5a11.18 11.18 0 0 0 3.9 2.64 66.8 66.8 0 0 1 8.24 4c2.55 1.67 4.75 4.13 5.18 7.08a44.8 44.8 0 0 1-.05 5.05c.12 3.42 1.84 6.57 3.5 9.6a4.2 4.2 0 0 0 2 2.1c1.65.58 3.22-.9 4.3-2.24s2.7-2.8 4.3-2.2a3.56 3.56 0 0 1 1.78 2.06c1 2.37 1.3 5 2.4 7.35s3.46 4.47 6.1 4.12a5.25 5.25 0 0 0 3.73-2.75 7.78 7.78 0 0 0 .43-.93 4.9 4.9 0 0 1-2.5 1.25z"/></g><path d="M791.1 326.36s11.52-.57 19.18-.3 19-5.93 19-5.93" opacity=".1"/><path fill="url(#b)" d="M372.78 453.5c-1.16-5.9-12.07-4.94-20-3.42-.67.13-1.32.26-1.94.4l.57-2.37-3.72-1.53a98.15 98.15 0 0 0-22.84-6.33c-11.48-1.72-29.68-5.4-40.87-12.56-10.17-6.5-14.25-8.38-17.1-10.13 0-.52 0-1 0-1.53 0-2.9-.16-5.56-.38-7.93a33.43 33.43 0 0 0-1.27-6.44c-2.38-7.9-7.74-10.42-13.1-15.36a49.16 49.16 0 0 0-11.84-8.24 31.66 31.66 0 0 1 2.27-7.58c.15-.37.3-.73.46-1.1 0-.05 0-.1.07-.14.16-.37.32-.74.48-1.1a24.64 24.64 0 0 0 12.87-21.55 24.37 24.37 0 0 0-7.24-17.34q-.57-.57-1.2-1.1l1.17-.4c2.47-.87 5.16-3.3 4.44-5.35h-.35a2.07 2.07 0 0 0-.1-.42 5 5 0 0 1-3-1.13c-1.15-1.42-1.5-3.55-3.6-5.54a9.85 9.85 0 0 0-1.58-1.35 13.86 13.86 0 0 0-5.1-2.1c.16.1.32.17.47.28l.3.24c-4.18-1-8.9-.85-12.9-2.56a18.7 18.7 0 0 1-2.74-1.5l.52.14c-2.15-1.24-4.08-2.83-6.3-4a17.4 17.4 0 0 0-3.9-1.4l1 .58A23.26 23.26 0 0 0 199 306.4c-6.15 3.62-10.5 9.43-13.75 15.54a66.27 66.27 0 0 0-7.7 33.37c.2 5.6 1.1 11.42-1 16.68-1.74 4.4-5.4 7.9-7.57 12.12-8.4 16.32 7.08 37.52-2.4 53.3-3.44 5.7-9.58 9.5-13.76 14.74s-5.7 13.74-.12 17.68c4 2.84 9.7 1.92 14.46 3.36a23 23 0 0 1-6.8 12.88l-.8-.15c-.17.18-.34.36-.53.52l.74.2-.28.26a76.66 76.66 0 0 0 16 2.84c4.8.34 9.9.16 14.07-2.12a19 19 0 0 0 5.5-4.7c0 1 .07 1.88.13 2.8a54.2 54.2 0 0 0 1.56 10.9c4.63 16.8-10 29.95-10 29.95a48.33 48.33 0 0 0-4.9 23.5 48.93 48.93 0 0 0 3 14.38c.14.37.27.73.4 1.08.28.7.57 1.4.85 2 .44 1 .87 1.88 1.3 2.7.28.56.56 1.08.83 1.56a36.24 36.24 0 0 0 3.22 4.93q2.22-1.52 4.44-2.86c0 .57 0 1.17 0 1.8.07 6.18-.55 14-.55 14s-4.64 16.56-5.1 21.33-2.25 34.27-2.25 34.27-6.26 19.07-17.84 30.64-9 44.7-9 44.7-8.1 27.92-5.33 29.28a2.83 2.83 0 0 0 1.4.08v1.13c-5 3.47-8.8 6.28-8.8 6.28s-1.4 22.92-3.26 27.35 2.32 9.65 2.32 9.65 41.24-1.14 44.83-1.37c1.65-.1 7.15-1.9 12.84-4.42 4.9-1.1 19.65-6.84 25-12.2a7.83 7.83 0 0 0 1.88-2.53c2.55-6.36-20.5-1.6-26.77-1.6s-6.95-4.76-9.85-8.4-.8-9.63-.8-9.63l-.6-17 2.74-1.1s3.7-14.54 9.73-21.57 16.7-33.82 16.92-35.18.46-3.86 4.86-10S237 650.1 237 650.1s10-31.33 17.6-47.44c4.68-9.85 7.28-27.3 8.6-39.4a39.47 39.47 0 0 1 4.23 1.42s2.14-13.7 3-29.36a167.54 167.54 0 0 0-.2-24c-1.2-13-8.8-38.17-8.35-61.6 1.83 1.2 3.6 2.3 5.2 3.3 0-.58.08-1.16.12-1.75 4.1 2.55 7.06 4.3 7.06 4.3s24.56 13.6 46.1 13.84 25.27 2.73 25.27 2.73l1.36-5.62 1.92-.35c9.08-1.74 25.2-5.87 23.86-12.64z" transform="translate(-57.62 -47.03)"/><path fill="url(#c)" d="M256.15 323.37l-1.12-.83a2.4 2.4 0 0 1 .46.8z" transform="translate(-57.62 -47.03)"/><path fill="url(#d)" d="M253.63 322.4h.67l-.63-.46h.17l-1.12-.82a2.4 2.4 0 0 1 .45.78h.25a2.2 2.2 0 0 1 .2.5z" transform="translate(-57.62 -47.03)"/><path fill="#965d7b" d="M147.4 316.42h17.82v27.83H147.4z"/><path d="M147.4 316.42h17.82v27.83H147.4z" opacity=".1"/><path fill="#e8f4ff" d="M118.6 711.47h-16.2v-21.84h16.2z"/><path fill="#ffc1c7" d="M149.38 316.84c4.35 1.66 9.25 10.45 9.5 17.8.1 3.3-3.8 8.92-3.8 8.92l4-.47c2.05-.28 4.7-.64 7.53-1.06 2.37-.36 4.84-.76 7.16-1.2 6.37-1.17 11.58-2.58 10.15-3.88-.68-.63-.86-1.84-.68-3.38a32.44 32.44 0 0 1 2.22-7.52c.3-.8.65-1.57 1-2.3 1.47-3.37 2.9-6 2.9-6s-13.62-1-25-1.48c-3.9-.17-7.54-.28-10.32-.3h-1.1c-3.44 0-5.1.27-3.54.86z"/><path fill="#575a89" d="M206.56 504.18s-2 36.25-9.45 52.23-17.1 47.07-17.1 47.07-4.28 13.06-8.56 19.14-4.5 8.57-4.73 9.92-10.57 27.92-16.43 34.9-9.45 21.4-9.45 21.4-25.67 10.8-28.37 9.44 5.18-29 5.18-29-2.48-32.88 8.78-44.36 17.35-30.4 17.35-30.4 1.8-29.27 2.25-34 4.95-21.16 4.95-21.16 1.35-17.34-.22-20.7 55.83-14.46 55.83-14.46z"/><path d="M206.56 504.18s-2 36.25-9.45 52.23-17.1 47.07-17.1 47.07-4.28 13.06-8.56 19.14-4.5 8.57-4.73 9.92-10.57 27.92-16.43 34.9-9.45 21.4-9.45 21.4-25.67 10.8-28.37 9.44 5.18-29 5.18-29-2.48-32.88 8.78-44.36 17.35-30.4 17.35-30.4 1.8-29.27 2.25-34 4.95-21.16 4.95-21.16 1.35-17.34-.22-20.7 55.83-14.46 55.83-14.46z" opacity=".05"/><path fill="#444053" d="M137.9 687.46l.67 19.47s-2 6 .78 9.57 3.5 8.33 9.57 8.33 28.5-4.73 26 1.58-23.53 14.42-27 14.64-43.54 1.35-43.54 1.35-4.05-5.18-2.25-9.57 3.15-27.14 3.15-27.14 31.26-23.73 32.6-18.24z"/><path d="M138.06 687.3l.67 19.47s-2 6 .8 9.56 3.48 8.34 9.56 8.34 28.47-4.73 26 1.57-23.54 14.4-27 14.64-43.58 1.35-43.58 1.35-4-5.18-2.25-9.57 3.1-27.13 3.1-27.13 31.34-23.76 32.7-18.24z" opacity=".05"/><path fill="#575a89" d="M101.04 702.47c2.7 1.35 28.34-9.5 28.34-9.5s3.6-14.4 9.46-21.4 16.2-33.54 16.43-34.9.45-3.82 4.73-9.9 8.56-19.14 8.56-19.14 9.68-31.07 17.1-47.05c5.17-11.1 7.72-32 8.8-43.7.48-5.15.67-8.54.67-8.54s-57.42 11-55.84 14.4c.5 1.13.7 3.78.74 6.84.08 6.14-.53 13.88-.53 13.88s-4.5 16.44-4.94 21.17-2.25 34-2.25 34-6.07 18.9-17.33 30.4-8.78 44.35-8.78 44.35-7.82 27.74-5.16 29.1z"/><path d="M161.38 546.88s-11.7-3.15-15.76.45 15.76-.45 15.76-.45zM161.16 561.74s-18.47-4-18.7 1.8 18.7-1.8 18.7-1.8zM153.73 577.97s-6.35 5.4-10.35 3.6 10.35-3.6 10.35-3.6zM136.62 607.22s12.83 4.73 9.9 9.7-5.18 5.62-6.3 4.26-3.6-13.96-3.6-13.96z" opacity=".1"/><path fill="#444053" d="M126.48 691.66l.68 19.48s-2 6 .8 9.56 3.48 8.34 9.56 8.34 28.48-4.73 26 1.57-23.53 14.42-27 14.65-43.57 1.35-43.57 1.35-4.05-5.18-2.25-9.57 3.15-27.13 3.15-27.13 31.28-23.76 32.63-18.24z"/><path d="M119.95 717.78s-.56 3.83-12.6.1 12.6-.1 12.6-.1zM98 720.6s-2.7 3.7 6.87 5.4-6.87-5.4-6.87-5.4zM100.6 717.66s9.45 8.22 12.37 8.22" opacity=".1"/><path d="M152.85 315.97c4.18 7.58 11.84 6.27 21.52 12.72 3.3 2.2 7.74-.95 11.06-2.65 1.75-4.36 3.87-8.32 3.87-8.32s-26.18-1.85-36.45-1.76z" opacity=".1"/><path fill="#ffc1c7" d="M149.83 302.36a24.54 24.54 0 1 0 24.55-24.54 24.43 24.43 0 0 0-24.55 24.54z"/><path d="M139.32 522.8c.52 1.1.72 3.76.75 6.82 21.56-13.38 41.5-14.3 54.43-12.7.47-5.15.66-8.54.66-8.54s-57.42 11.03-55.84 14.4z" opacity=".1"/><path fill="#ff6584" d="M126.45 504.22a49.36 49.36 0 0 0 9.26 26.45c39-27 73.87-11.93 73.87-11.93s2.07-13.6 2.88-29.13a172.6 172.6 0 0 0-.18-23.78c-1.27-13.7-9.53-41.1-7.95-65.52.7-10.75 4.87-20.77 4.72-29.06 0-2.87-.16-5.5-.37-7.86a33.5 33.5 0 0 0-1.23-6.38c-2.3-7.84-7.52-10.34-12.73-15.24a47.66 47.66 0 0 0-11.5-8.18c-8.45-4.13-17-4.13-24.33 1.05a28.74 28.74 0 0 0-3.84 3.27 36.36 36.36 0 0 0-4.1 5c-.2.3-.4.6-.58.88-1.08 1.7-2.08 4.75-3 8.54-3.4 14.25-5.36 38.74-5.36 38.74s-3.84 29.6-2.65 49.3a55.23 55.23 0 0 0 1.5 10.82c4.52 16.66-9.67 29.72-9.67 29.72a48.73 48.73 0 0 0-4.73 23.32z"/><path fill="#ffc1c7" d="M282.97 422.02s2.37-.34 5.74-1c8.82-1.76 24.52-5.86 23.22-12.57-1.12-5.85-11.72-4.9-19.43-3.4-4.56.88-8.1 2-8.1 2z"/><path d="M166.38 375.6c4.73 3.6 16.44 13.52 25.44 20.5 5.07 3.93 12.14 8.57 17.35 11.9.7-10.77 1.2-21 1.05-29.26-3.54-2.86-4.72-6.58-10.06-12.8-9.46-11-26.35-14.87-26.35-14.87-11.22-2.48-12.12 20.9-7.42 24.54zM282.97 422.02s2.37-.34 5.74-1l3.8-16c-4.56.88-8.1 2-8.1 2z" opacity=".1"/><path fill="#e8f4ff" d="M173.84 349.27s16.9 3.82 26.35 14.86 6 6 25.43 18.7c10.87 7.08 28.55 10.74 39.7 12.44a94.3 94.3 0 0 1 22.2 6.3l3.62 1.5-5.63 23.9s-3.6-2.48-24.54-2.7-44.8-13.74-44.8-13.74-15.32-9.23-24.33-16.2-20.7-16.92-25.47-20.52-3.8-27 7.46-24.53z"/><path d="M147.38 354.13c3.28 2 7.25 1.18 12-4.7 12.78-15.95 34-.07 48.08 9.37-2.3-7.83-7.52-10.34-12.73-15.24-15.1-14.2-32-15.94-43.77 1.15-.2.3-.4.6-.6.9-1.1 1.68-2.1 4.74-2.98 8.53z" opacity=".1"/><path fill="#ff6584" d="M147.38 352.33c3.28 2 7.25 1.18 12-4.7a5.54 5.54 0 0 1 .37-.46 17.46 17.46 0 0 1 6.87-5.13 17 17 0 0 1 7.15-1.2c11.27.37 24.14 9.75 33.7 16.16-2.3-7.84-7.53-10.34-12.74-15.24a47.66 47.66 0 0 0-11.5-8.18c-8.46-4.13-17-4.13-24.34 1.05a28.74 28.74 0 0 0-3.85 3.27 36.36 36.36 0 0 0-4.1 5c-.2.3-.4.6-.58.88-1.1 1.7-2.1 4.76-3 8.55z"/><path d="M126.45 502.42a49.36 49.36 0 0 0 9.26 26.45c39-27 73.87-11.93 73.87-11.93s2.07-13.6 2.88-29.13c-14.85-.12-57.14.23-71.33 8a94.14 94.14 0 0 1-14.67 6.62z" opacity=".1"/><path fill="#e8f4ff" d="M126.45 504.22a49.36 49.36 0 0 0 9.26 26.45c39-27 73.87-11.93 73.87-11.93s2.07-13.6 2.88-29.13c-14.85-.12-57.14.23-71.33 8a94.14 94.14 0 0 1-14.67 6.62z"/><path d="M198.6 279.32l-1.08-.82a2.4 2.4 0 0 1 .45.78zM139.38 440.36a29.5 29.5 0 0 0 3.6-4.45c9.4-13.9 11.34-31.73 7.7-48-.82-3.6-1.88-7.42-.58-10.9 1.78-4.78 7.38-7.27 9.93-11.7 3.1-5.44.95-12-.3-18.15 0-.25-.1-.48-.14-.72-.23-1.1-.4-2.24-.53-3.36a46.63 46.63 0 0 1 2.08-20.05c.1-.33.22-.66.34-1a30.38 30.38 0 0 1 2.75-5.8c2.3-3.7 5.52-6.78 9.78-7.87a7.72 7.72 0 0 0 3.37-1.26c2.53-2.22-.35-6-.92-9.27-.7-3.82 2.28-7.46 5.8-9.36 3-1.6 6.35-2.33 9.6-3.34a24.55 24.55 0 0 0-37.94 30.84h-1.1c-3.36 0-5 .27-3.46.86 4.35 1.66 5.4 13.72 5.65 21.06a36.36 36.36 0 0 0-4.1 5c-.2.28-.4.58-.58.87-1.08 1.7-2.08 4.75-3 8.54-3.4 14.26-5.36 38.75-5.36 38.75s-3.8 29.6-2.62 49.3z" opacity=".1"/><path fill="#965d7b" d="M195.72 277.6c1.83 2.17-1.16 5.1-3.88 6.08-3.77 1.37-7.84 2-11.36 3.93s-6.5 5.55-5.8 9.37c.58 3.25 3.45 7 .92 9.26a7.86 7.86 0 0 1-3.37 1.27c-6.36 1.62-10.4 7.67-12.54 13.66a46.36 46.36 0 0 0-1.9 24.4c1.2 6.32 3.66 13.2.43 18.85-2.55 4.46-8.15 6.94-9.93 11.72-1.3 3.48-.24 7.3.57 10.9 3.65 16.25 1.72 34.07-7.7 48a22.1 22.1 0 0 1-7.26 7.27c-4.05 2.24-9 2.42-13.67 2.1a73.38 73.38 0 0 1-15.56-2.84 23 23 0 0 0 7.46-13.6c-4.64-1.43-10.15-.5-14.05-3.33-5.4-3.9-3.95-12.33.1-17.54s10-9 13.38-14.63c9.2-15.66-5.84-36.7 2.33-52.88 2.1-4.2 5.66-7.68 7.35-12 2-5.23 1.15-11 .95-16.55a66.94 66.94 0 0 1 7.5-33.1c3.13-6.07 7.37-11.83 13.34-15.42s13.9-4.68 20.1-1.46c2.74 1.42 5 3.58 7.85 4.82 5.45 2.38 12.37 1.1 17.17 4.54s2.6 7.88 8.64 8"/><path d="M171.1 447.97c-2.34 1.17-7 11.72-17.58 19.34s17.58-19.33 17.58-19.33zM175.8 426.87S162.3 455 146.5 459.1s29.3-32.23 29.3-32.23zM200.7 495.17s-4.5 14.1-3.6 15.3 3.6-15.3 3.6-15.3zM192 495.77s-4.5 14.1-3.6 15.3 3.6-15.3 3.6-15.3zM182.1 495.47s-4.5 14.1-3.6 15.3 3.6-15.3 3.6-15.3zM134 506.64s2.9 14.52 4.27 15.14-4.26-15.14-4.26-15.14zM150.82 500.33s2.9 14.53 4.26 15.14-4.26-15.14-4.26-15.14zM141.22 504.54s2.9 14.52 4.26 15.14-4.26-15.14-4.26-15.14zM226.23 390.55c-.75.15 2.25 7.35-6.3 7.8s6.3-7.8 6.3-7.8zM283.72 408.7s-3.3 6.9-8.7 8.26 8.7-8.25 8.7-8.25zM257.75 404.36s7.2 7.5-2.85 9.15 2.85-9.14 2.85-9.14zM200.56 375.54s-14.7-4.5-17-1.2 17 1.2 17 1.2zM174.8 393.97c-2.34 1.17-7 11.72-17.58 19.34s17.6-19.33 17.6-19.33z" opacity=".1"/><g opacity=".1"><path d="M166.04 263.6c-2.58-1.13-4.7-3-7.13-4.42a16.53 16.53 0 0 1 3.8 1.4c2.15 1.12 4.04 2.7 6.12 3.93a16.74 16.74 0 0 1-2.78-.9zM196.38 277.97l-.65-.05a2.42 2.42 0 0 0-.44-.77zM107.18 425.7c-.05.32-.13.63-.2.95-3.32-.37-6.67-.57-9.3-2.44 3.08.63 6.47.57 9.5 1.5zM115.28 442.1c4.67.35 9.62.17 13.68-2.1a22.07 22.07 0 0 0 7.26-7.24c9.42-13.93 11.35-31.75 7.7-48-.8-3.6-1.87-7.44-.58-10.9 1.8-4.8 7.4-7.28 9.94-11.72 3.23-5.64.77-12.53-.45-18.86a46.45 46.45 0 0 1 1.9-24.4c2.15-6 6.18-12 12.55-13.66a7.9 7.9 0 0 0 3.37-1.26c2.52-2.22-.35-6-.93-9.26-.7-3.82 2.3-7.47 5.8-9.36s7.6-2.56 11.36-3.93c2.4-.86 5-3.26 4.33-5.3l.65.05-1.08-.82a2.4 2.4 0 0 1 .44.77c-5.2-.45-3.34-4.63-8-8l-.44-.3a13.58 13.58 0 0 1 5 2.1c4.64 3.34 2.8 7.53 8 8 .7 2-1.92 4.44-4.32 5.3-3.77 1.38-7.84 2-11.36 3.94s-6.5 5.54-5.8 9.36c.58 3.25 3.45 7 .92 9.26a7.86 7.86 0 0 1-3.37 1.27c-6.36 1.62-10.4 7.67-12.54 13.66a46.46 46.46 0 0 0-1.92 24.4c1.22 6.33 3.68 13.22.45 18.86-2.55 4.45-8.15 6.93-9.93 11.7-1.3 3.5-.24 7.3.57 10.92 3.65 16.24 1.72 34.06-7.7 48a22.2 22.2 0 0 1-7.26 7.26c-4.05 2.25-9 2.43-13.67 2.1a73.38 73.38 0 0 1-15.56-2.83c.2-.15.35-.33.53-.5a71.64 71.64 0 0 0 10.48 1.5z"/></g><path fill="#efeff4" d="M812.1 63.75s-84.18-5.07-74.26 53.93c0 0-2 10.43 7.48 15.16 0 0 .15-4.37 8.64-2.9a38.87 38.87 0 0 0 9.14.45 19 19 0 0 0 11.2-4.63s23.66-9.77 32.86-48.46c0 0 6.8-8.42 6.54-10.6l-14.2 6.07s4.85 10.26 1 18.77c0 0-.47-18.4-3.2-18-.56.1-7.4 3.55-7.4 3.55s8.37 17.85 2 30.83c0 0 2.4-22-4.64-29.55l-10 5.84s9.77 18.45 3.15 33.5c0 0 1.7-23.1-5.24-32.07l-9.06 7.07s9.28 18.25 3.66 30.7c0 0-.73-26.88-5.55-28.9 0 0-7.9 7-9.12 9.86 0 0 6.28 13.2 2.38 20.16 0 0-2.4-17.9-4.35-18 0 0-7.9 11.86-8.7 20 0 0 .33-12.1 6.8-21.13 0 0-7.64 1.32-12.1 6.28 0 0 1.23-8.4 14-9.12 0 0 6.52-9 8.27-9.54 0 0-12.75-1.07-20.48 2.36 0 0 6.8-7.9 22.8-4.32l9-7.3s-16.78-2.3-23.9.24c0 0 8.2-7 26.32-1.9l9.74-5.83s-14.3-3.08-22.83-2c0 0 9-4.85 25.68.4l7-3.12s-10.47-2.06-13.54-2.38-3.24-1.17-3.24-1.17a36.27 36.27 0 0 1 19.7 2.2s14.76-5.5 14.5-6.45zM725.75 37.52s-38-2.3-33.56 24.36c0 0-.9 4.7 3.37 6.85 0 0 .07-2 3.9-1.3a17.6 17.6 0 0 0 4.14.2 8.63 8.63 0 0 0 5-2.1s10.7-4.4 14.86-21.9c0 0 3.08-3.8 3-4.78l-6.42 2.74s2.2 4.63.47 8.47c0 0-.2-8.3-1.43-8.1-.26 0-3.34 1.6-3.34 1.6s3.77 8.06.93 13.92c0 0 1.08-9.95-2.1-13.35l-4.53 2.63s4.4 8.34 1.42 15.14c0 0 .77-10.43-2.37-14.5l-4.1 3.2s4.15 8.2 1.62 13.85c0 0-.33-12.14-2.5-13 0 0-3.58 3.15-4.13 4.45 0 0 2.84 6 1.08 9.1 0 0-1.08-8.08-2-8.1 0 0-3.57 5.35-3.94 9a19.43 19.43 0 0 1 3.1-9.56 10.72 10.72 0 0 0-5.48 2.83s.56-3.8 6.35-4.13c0 0 2.95-4.06 3.74-4.3 0 0-5.75-.5-9.25 1.06 0 0 3.08-3.58 10.3-2l4.06-3.3s-7.58-1-10.8.1c0 0 3.7-3.16 11.9-.85l4.4-2.64s-6.47-1.4-10.32-.9c0 0 4.06-2.18 11.6.2l3.15-1.42s-4.73-.93-6.12-1.07-1.45-.53-1.45-.53a16.4 16.4 0 0 1 8.9 1s6.72-2.45 6.6-2.9z"/><ellipse cx="1057.84" cy="719.99" fill="#efeff4" rx="26.93" ry="4.55" opacity=".1"/><ellipse cx="31.52" cy="795.68" fill="#efeff4" rx="26.93" ry="4.55" opacity=".1"/><ellipse cx="187.85" cy="801.38" fill="#efeff4" rx="26.93" ry="4.55" opacity=".1"/><ellipse cx="998.9" cy="768.75" fill="#efeff4" rx="40.21" ry="6.8"/><path fill="#efeff4" d="M1015.52 757.63a11.72 11.72 0 0 0 3.83-5.78c.5-2.3-.48-5.06-2.68-5.9-2.46-.94-5.1.77-7.08 2.5s-4.3 3.68-6.9 3.3a10.48 10.48 0 0 0 3.25-9.8 4.13 4.13 0 0 0-.9-2c-1.37-1.46-3.85-.83-5.48.32-5.2 3.65-6.65 10.72-6.68 17.07-.53-2.3-.1-4.68-.1-7s-.66-5-2.65-6.22a8 8 0 0 0-4-1c-2.34-.1-4.94.15-6.53 1.86-2 2.12-1.47 5.68.25 8s4.35 3.8 6.77 5.42a15 15 0 0 1 4.83 4.6 4.16 4.16 0 0 1 .36.84h14.66a41.24 41.24 0 0 0 9.02-6.2zM44.08 673.78s5.5 7.18-2.53 18-14.65 20-12 26.76c0 0 12.12-20.14 22-20.42s3.38-12.23-7.47-24.34z"/><path d="M44.08 673.78a8.63 8.63 0 0 1 1.12 2.25c9.62 11.3 14.75 21.85 5.5 22.12-8.6.24-18.95 15.65-21.42 19.54.08.28.18.58.3.87 0 0 12.1-20.14 22-20.42s3.35-12.26-7.5-24.37z" opacity=".1"/><path fill="#ffd037" d="M54.3 682.97c0 2.53-.3 4.58-.64 4.58s-.63-2-.63-4.58.35-1.33.7-1.33.56-1.24.56 1.33zM57.8 685.97c-2.22 1.2-4.16 1.94-4.33 1.64s1.5-1.53 3.72-2.74 1.34-.33 1.5 0 1.32-.12-.9 1.1z"/><path fill="#efeff4" d="M15.06 673.78s-5.5 7.18 2.54 18 14.65 20 12 26.76c0 0-12.1-20.14-22-20.42s-3.38-12.23 7.46-24.34z"/><path d="M15.06 673.78a9 9 0 0 0-1.12 2.25c-9.62 11.3-14.74 21.85-5.5 22.12 8.62.24 19 15.65 21.43 19.54-.1.28-.18.58-.3.87 0 0-12.1-20.14-22-20.42s-3.35-12.26 7.5-24.37z" opacity=".1"/><path fill="#ffd037" d="M4.85 682.97c0 2.53.28 4.58.64 4.58s.62-2 .62-4.58-.36-1.33-.7-1.33-.57-1.24-.57 1.33zM1.38 685.97c2.22 1.2 4.15 1.94 4.32 1.64s-1.5-1.53-3.72-2.74-1.34-.33-1.5 0-1.35-.12.9 1.1z"/><path fill="#a8a8a8" d="M6.6 717.63s15.36-.47 20-3.77 23.62-7.23 24.78-1.9 23.1 26.3 5.74 26.44-40.3-2.7-44.9-5.52-5.62-15.25-5.62-15.25z"/><path d="M57.38 736.5c-17.34.15-40.3-2.7-44.9-5.5-3.53-2.15-4.93-9.84-5.4-13.4h-.5s1 12.4 5.58 15.2 27.57 5.67 44.9 5.53c5 0 6.75-1.82 6.65-4.46-.65 1.6-2.56 2.6-6.32 2.64z" opacity=".2"/></svg>