<svg width="110" height="70" version="1.1" xmlns="http://www.w3.org/2000/svg" xmlns:xlink="http://www.w3.org/1999/xlink" viewBox="0, 0, 400,253.96825396825398"><g id="svgg"><path id="path0" d="M277.643 113.787 C 277.691 136.226,277.799 146.870,277.978 146.993 C 278.123 147.093,278.382 148.020,278.555 149.053 C 278.727 150.085,279.034 151.285,279.237 151.719 C 279.440 152.153,279.778 153.001,279.988 153.604 C 280.198 154.207,280.601 155.025,280.884 155.421 C 281.166 155.818,281.397 156.204,281.397 156.280 C 281.397 157.044,286.118 162.286,286.805 162.286 C 286.976 162.286,287.259 162.514,287.433 162.794 C 287.608 163.073,287.903 163.302,288.090 163.302 C 288.277 163.302,288.692 163.528,289.011 163.805 C 289.331 164.083,289.977 164.448,290.447 164.618 C 290.917 164.788,291.302 165.006,291.302 165.102 C 291.302 165.198,292.073 165.483,293.016 165.734 C 293.959 165.985,294.791 166.279,294.865 166.386 C 295.049 166.652,299.231 167.365,300.605 167.365 C 301.215 167.365,301.714 167.479,301.714 167.619 C 301.714 167.775,302.984 167.873,305.016 167.873 C 306.832 167.873,308.317 167.784,308.317 167.674 C 308.317 167.565,309.582 167.341,311.127 167.177 C 312.673 167.013,314.276 166.709,314.690 166.503 C 315.104 166.296,316.096 165.937,316.896 165.705 C 317.695 165.473,318.406 165.205,318.476 165.111 C 318.546 165.016,319.089 164.724,319.683 164.462 C 320.276 164.201,320.762 163.889,320.762 163.771 C 320.762 163.652,320.907 163.556,321.084 163.556 C 321.389 163.556,323.031 162.318,324.698 160.831 C 325.692 159.945,327.365 157.847,327.365 157.487 C 327.365 157.333,327.478 157.206,327.617 157.206 C 327.869 157.206,328.398 156.307,329.409 154.159 C 330.530 151.775,330.686 151.351,330.969 149.917 C 331.129 149.107,331.342 148.387,331.442 148.317 C 331.919 147.986,332.190 142.129,332.190 132.181 L 332.190 121.397 323.830 121.397 L 315.471 121.397 315.386 132.487 C 315.321 141.072,315.230 143.601,314.984 143.683 C 314.810 143.741,314.667 143.987,314.667 144.230 C 314.667 147.412,311.234 150.947,307.474 151.637 C 303.215 152.418,300.225 151.289,297.333 147.808 C 296.982 147.385,296.127 144.820,296.127 144.189 C 296.127 143.969,295.984 143.741,295.810 143.683 C 295.561 143.600,295.475 140.137,295.413 127.788 L 295.334 112.000 313.762 112.000 L 332.190 112.000 332.190 105.397 L 332.190 98.794 313.778 98.794 L 295.365 98.794 295.365 89.778 L 295.365 80.762 286.468 80.762 L 277.571 80.762 277.643 113.787 M267.277 97.250 C 265.447 97.331,263.790 97.524,263.594 97.678 C 263.398 97.833,262.525 98.095,261.653 98.262 C 258.496 98.864,251.683 103.724,251.683 105.372 C 251.683 105.525,251.568 105.651,251.429 105.651 C 251.272 105.651,251.175 104.339,251.175 102.222 L 251.175 98.794 242.667 98.794 L 234.159 98.794 234.159 132.317 L 234.159 165.841 243.166 165.841 L 252.173 165.841 252.245 146.198 C 252.297 131.982,252.397 126.455,252.607 126.198 C 252.766 126.002,253.044 125.171,253.225 124.352 C 253.406 123.533,253.676 122.731,253.825 122.570 C 253.973 122.408,254.311 121.891,254.575 121.421 C 255.010 120.644,255.274 120.299,256.343 119.111 C 256.872 118.523,257.605 117.969,258.558 117.438 C 259.037 117.171,259.486 116.887,259.556 116.807 C 259.747 116.588,262.683 115.810,263.318 115.810 C 263.623 115.810,263.873 115.695,263.873 115.556 C 263.873 115.397,265.354 115.302,267.810 115.302 C 270.428 115.302,271.746 115.392,271.746 115.572 C 271.746 115.721,272.060 115.807,272.444 115.763 L 273.143 115.683 273.209 106.349 L 273.276 97.016 271.940 97.059 C 271.205 97.083,269.106 97.169,267.277 97.250 M22.603 97.434 C 22.114 97.492,21.486 97.643,21.206 97.769 C 20.927 97.895,19.898 98.129,18.921 98.287 C 17.943 98.446,16.800 98.730,16.381 98.917 C 15.962 99.104,15.019 99.448,14.286 99.681 C 13.552 99.914,12.952 100.191,12.952 100.297 C 12.952 100.403,12.483 100.645,11.910 100.834 C 11.336 101.024,10.809 101.328,10.739 101.510 C 10.670 101.692,10.463 101.841,10.281 101.841 C 9.778 101.841,7.085 104.189,6.222 105.378 C 5.803 105.956,5.260 106.672,5.016 106.968 C 4.771 107.264,4.571 107.609,4.571 107.734 C 4.571 107.859,4.337 108.441,4.050 109.028 C 3.394 110.372,2.802 112.819,2.797 114.207 C 2.795 114.793,2.679 115.342,2.540 115.429 C 2.224 115.624,2.204 118.198,2.514 118.797 C 2.639 119.040,2.860 120.152,3.005 121.270 C 3.407 124.364,5.620 128.507,7.654 129.974 C 7.900 130.152,8.250 130.445,8.432 130.626 C 8.613 130.807,9.105 131.175,9.524 131.443 C 9.943 131.712,10.400 132.021,10.540 132.129 C 12.057 133.300,15.767 135.164,17.206 135.479 C 17.660 135.578,18.032 135.746,18.032 135.852 C 18.032 135.957,18.975 136.253,20.127 136.509 C 21.279 136.765,22.337 137.056,22.476 137.156 C 22.616 137.255,23.702 137.542,24.889 137.792 C 26.076 138.043,27.105 138.326,27.175 138.421 C 27.244 138.517,28.359 138.807,29.651 139.066 C 30.943 139.325,32.000 139.627,32.000 139.737 C 32.000 139.847,32.190 139.937,32.422 139.937 C 32.948 139.937,35.637 140.756,35.810 140.968 C 35.879 141.055,36.737 141.336,37.714 141.595 C 38.692 141.853,39.549 142.140,39.619 142.233 C 39.689 142.326,40.180 142.544,40.711 142.717 C 46.365 144.561,43.993 151.965,37.352 153.200 C 36.504 153.357,35.810 153.581,35.810 153.696 C 35.810 153.975,28.867 153.965,28.559 153.685 C 28.426 153.564,27.588 153.327,26.697 153.158 C 23.382 152.529,20.134 150.047,19.494 147.653 C 19.330 147.041,19.106 146.540,18.995 146.540 C 18.884 146.540,18.794 145.968,18.794 145.270 L 18.794 144.000 9.524 144.000 L 0.254 144.000 0.258 145.714 C 0.263 147.489,0.830 150.698,1.229 151.203 C 1.354 151.362,1.649 152.083,1.885 152.806 C 2.121 153.528,2.479 154.257,2.681 154.424 C 2.882 154.592,3.048 154.868,3.048 155.038 C 3.048 155.941,7.430 160.583,9.571 161.946 C 9.964 162.196,10.343 162.467,10.413 162.547 C 10.726 162.906,13.468 164.299,14.429 164.587 C 15.014 164.763,15.492 164.985,15.492 165.082 C 15.492 165.178,16.378 165.453,17.460 165.692 C 18.543 165.932,19.632 166.238,19.881 166.373 C 20.435 166.673,25.546 167.365,27.207 167.365 C 27.871 167.365,28.485 167.479,28.571 167.619 C 28.764 167.931,36.317 167.967,36.317 167.657 C 36.317 167.538,37.317 167.375,38.540 167.295 C 41.200 167.121,44.190 166.597,44.190 166.305 C 44.190 166.190,44.478 166.095,44.829 166.095 C 45.757 166.095,48.578 165.280,48.971 164.898 C 49.155 164.718,49.471 164.571,49.672 164.571 C 50.079 164.571,50.969 164.108,51.500 163.619 C 51.690 163.444,51.991 163.302,52.168 163.302 C 53.405 163.302,58.685 157.879,59.283 155.994 C 59.382 155.683,59.557 155.429,59.671 155.429 C 59.786 155.429,60.086 154.657,60.337 153.714 C 60.588 152.771,60.880 151.940,60.985 151.867 C 61.851 151.266,61.853 139.810,60.987 139.176 C 60.890 139.105,60.609 138.390,60.361 137.587 C 60.113 136.784,59.810 136.127,59.687 136.127 C 59.564 136.127,59.385 135.881,59.290 135.581 C 58.891 134.326,54.848 130.856,52.825 130.034 C 52.337 129.835,51.800 129.539,51.632 129.375 C 51.465 129.212,50.579 128.937,49.664 128.764 C 48.749 128.592,48.000 128.364,48.000 128.258 C 48.000 128.151,47.086 127.857,45.968 127.603 C 44.851 127.350,43.937 127.068,43.937 126.978 C 43.937 126.887,42.994 126.604,41.841 126.348 C 40.689 126.092,39.622 125.789,39.469 125.674 C 39.317 125.560,38.289 125.281,37.184 125.054 C 36.079 124.828,35.060 124.554,34.921 124.446 C 34.781 124.339,33.695 124.045,32.508 123.795 C 31.321 123.544,30.292 123.263,30.222 123.169 C 30.152 123.075,29.238 122.792,28.190 122.540 C 27.143 122.288,26.229 122.001,26.159 121.904 C 26.089 121.806,25.439 121.531,24.715 121.292 C 23.990 121.054,23.362 120.780,23.318 120.683 C 23.274 120.587,22.821 120.296,22.312 120.037 C 21.765 119.760,21.193 119.188,20.915 118.641 C 20.656 118.131,20.359 117.676,20.254 117.630 C 19.041 117.091,20.604 113.326,22.521 112.168 C 24.997 110.672,35.840 110.470,37.263 111.893 C 37.461 112.091,37.827 112.254,38.077 112.254 C 38.557 112.254,41.143 114.822,41.143 115.299 C 41.143 115.453,41.362 116.033,41.629 116.586 C 41.896 117.139,42.192 118.048,42.286 118.605 L 42.457 119.619 51.197 119.619 L 59.937 119.619 59.937 118.603 C 59.937 118.044,59.822 117.587,59.683 117.587 C 59.543 117.587,59.429 117.197,59.429 116.721 C 59.429 115.583,58.743 112.021,58.453 111.653 C 58.328 111.495,58.033 110.774,57.797 110.051 C 57.562 109.329,57.204 108.600,57.002 108.433 C 56.800 108.265,56.635 107.989,56.635 107.819 C 56.635 106.064,50.321 100.741,46.948 99.653 C 46.200 99.411,45.530 99.136,45.460 99.042 C 45.390 98.947,45.048 98.803,44.698 98.722 C 44.349 98.641,43.606 98.456,43.048 98.309 C 42.489 98.163,41.613 98.041,41.101 98.038 C 40.586 98.034,40.122 97.890,40.064 97.714 C 39.960 97.403,24.896 97.161,22.603 97.434 M97.143 97.444 C 96.724 97.498,96.152 97.642,95.873 97.766 C 95.594 97.889,94.794 98.119,94.095 98.279 C 92.781 98.578,90.070 99.862,89.457 100.475 C 89.264 100.668,88.984 100.825,88.834 100.825 C 88.543 100.825,85.587 103.830,85.587 104.126 C 85.587 104.223,85.299 104.634,84.946 105.040 C 84.593 105.446,84.240 106.027,84.161 106.331 C 84.082 106.635,83.857 106.946,83.660 107.021 C 83.360 107.136,83.302 106.471,83.302 102.976 L 83.302 98.794 74.794 98.794 L 66.286 98.794 66.286 132.317 L 66.286 165.841 75.302 165.841 L 84.317 165.841 84.317 144.620 C 84.317 124.459,84.439 120.353,85.062 119.492 C 85.163 119.352,85.453 118.678,85.706 117.993 C 86.479 115.905,88.252 114.107,90.147 113.490 C 90.642 113.328,91.129 113.070,91.229 112.916 C 91.483 112.522,98.099 112.584,98.232 112.980 C 98.285 113.140,98.576 113.270,98.878 113.271 C 100.698 113.276,102.911 114.839,103.637 116.633 C 103.821 117.088,104.066 117.526,104.183 117.607 C 104.703 117.965,104.872 124.496,104.880 144.444 L 104.889 165.841 113.905 165.841 L 122.921 165.841 122.921 145.285 C 122.921 131.854,123.009 124.674,123.175 124.571 C 123.314 124.485,123.429 124.072,123.429 123.654 C 123.429 122.474,124.214 119.305,124.603 118.916 C 124.795 118.724,124.952 118.424,124.952 118.249 C 124.952 118.075,125.292 117.483,125.707 116.934 C 126.122 116.385,126.465 115.840,126.469 115.721 C 126.480 115.378,127.840 114.198,128.851 113.653 C 129.361 113.379,129.778 113.084,129.778 112.998 C 129.778 112.758,131.522 112.291,133.115 112.105 C 134.612 111.929,138.413 112.583,138.413 113.016 C 138.413 113.137,138.639 113.308,138.916 113.395 C 139.499 113.580,141.460 115.400,141.460 115.755 C 141.460 115.887,141.695 116.293,141.981 116.657 C 142.268 117.022,142.684 117.866,142.906 118.533 C 143.128 119.200,143.402 119.864,143.514 120.009 C 144.136 120.812,144.250 124.630,144.252 144.698 L 144.254 165.841 153.143 165.841 L 162.032 165.841 162.030 142.159 C 162.028 119.626,161.898 114.708,161.277 113.578 C 161.146 113.339,160.850 112.457,160.621 111.619 C 160.391 110.781,160.117 110.038,160.011 109.968 C 159.905 109.898,159.571 109.327,159.268 108.698 C 157.989 106.040,156.676 104.410,153.604 101.671 C 152.658 100.827,147.811 98.383,146.667 98.173 C 146.108 98.070,145.490 97.854,145.294 97.692 C 144.809 97.290,133.309 97.277,132.801 97.678 C 132.605 97.832,131.901 98.091,131.236 98.253 C 129.296 98.727,126.545 100.345,124.726 102.084 C 123.700 103.065,122.159 105.031,122.159 105.359 C 122.159 105.520,122.065 105.651,121.951 105.651 C 121.836 105.651,121.572 106.012,121.363 106.453 C 120.941 107.344,121.053 107.408,119.505 105.397 C 119.022 104.768,118.458 104.063,118.253 103.829 C 118.048 103.595,117.753 103.166,117.598 102.876 C 117.442 102.586,117.181 102.349,117.017 102.349 C 116.852 102.349,116.428 102.062,116.073 101.710 C 114.922 100.569,113.342 99.302,113.070 99.302 C 112.924 99.302,112.766 99.188,112.720 99.049 C 112.327 97.876,102.032 96.816,97.143 97.444 M190.349 97.434 C 189.790 97.491,189.105 97.637,188.825 97.760 C 188.546 97.882,187.460 98.121,186.413 98.290 C 185.365 98.460,184.222 98.750,183.873 98.935 C 183.524 99.120,182.638 99.459,181.905 99.688 C 181.171 99.917,180.571 100.209,180.571 100.338 C 180.571 100.466,180.418 100.571,180.229 100.571 C 179.889 100.571,178.387 101.256,177.905 101.631 C 173.802 104.822,171.141 108.202,170.541 110.984 C 170.435 111.473,170.259 111.930,170.150 112.001 C 169.906 112.157,169.143 115.768,169.143 116.764 C 169.143 117.161,169.022 117.606,168.875 117.753 C 168.728 117.901,168.642 118.695,168.685 119.519 L 168.762 121.016 177.177 121.083 L 185.592 121.150 185.907 119.482 C 186.080 118.565,186.350 117.676,186.507 117.507 C 186.665 117.337,187.022 116.750,187.302 116.201 C 187.581 115.652,188.067 114.945,188.381 114.629 C 188.695 114.313,188.952 113.935,188.952 113.789 C 188.952 113.643,189.120 113.524,189.324 113.524 C 189.529 113.524,189.810 113.311,189.949 113.052 C 190.088 112.792,190.749 112.429,191.418 112.245 C 192.087 112.061,192.717 111.788,192.816 111.638 C 193.066 111.263,202.109 111.263,202.359 111.638 C 202.458 111.788,203.068 112.056,203.715 112.233 C 205.366 112.687,207.390 114.505,207.783 115.888 C 207.949 116.473,208.181 117.061,208.297 117.194 C 208.576 117.513,208.569 118.603,208.287 118.603 C 208.166 118.603,208.003 119.079,207.925 119.661 C 207.663 121.615,205.957 123.109,203.175 123.820 C 202.267 124.052,201.295 124.341,201.016 124.462 C 200.737 124.583,199.137 124.865,197.460 125.088 C 195.784 125.312,194.184 125.594,193.905 125.715 C 193.625 125.836,191.711 126.137,189.651 126.383 C 187.590 126.630,185.905 126.923,185.905 127.035 C 185.905 127.147,185.671 127.238,185.386 127.238 C 184.592 127.238,180.970 128.023,180.826 128.226 C 180.756 128.325,180.215 128.547,179.625 128.719 C 178.670 128.998,177.548 129.552,174.461 131.268 C 173.113 132.017,170.355 134.870,169.495 136.405 C 169.232 136.875,168.890 137.396,168.737 137.562 C 168.584 137.728,168.309 138.416,168.126 139.090 C 167.944 139.765,167.710 140.432,167.607 140.571 C 166.448 142.146,166.446 155.937,167.605 155.937 C 167.718 155.937,167.880 156.289,167.966 156.720 C 168.397 158.874,171.870 162.998,174.490 164.467 C 174.966 164.734,175.491 165.078,175.657 165.231 C 175.823 165.384,176.511 165.662,177.186 165.847 C 177.861 166.033,178.471 166.269,178.541 166.372 C 178.736 166.656,182.743 167.365,184.155 167.365 C 184.838 167.365,185.397 167.479,185.397 167.619 C 185.397 167.775,186.662 167.873,188.683 167.873 C 190.601 167.873,192.035 167.767,192.127 167.619 C 192.213 167.479,192.763 167.365,193.348 167.366 C 194.583 167.366,198.924 166.613,199.111 166.365 C 199.181 166.273,199.952 165.985,200.825 165.725 C 201.698 165.466,202.413 165.172,202.413 165.074 C 202.413 164.975,202.956 164.690,203.619 164.440 C 204.283 164.189,204.917 163.831,205.028 163.643 C 205.140 163.455,205.385 163.302,205.573 163.302 C 205.761 163.302,206.459 162.787,207.125 162.159 C 207.790 161.530,208.421 161.016,208.527 161.016 C 208.633 161.016,208.771 160.873,208.834 160.698 C 208.897 160.524,209.034 161.038,209.138 161.841 C 209.243 162.644,209.429 163.302,209.553 163.302 C 209.677 163.302,209.778 163.692,209.778 164.170 C 209.778 165.953,209.201 165.841,218.440 165.841 L 226.794 165.841 226.794 142.847 C 226.794 121.236,226.636 115.202,226.062 114.796 C 225.961 114.725,225.686 113.760,225.450 112.651 C 225.213 111.543,224.923 110.571,224.806 110.492 C 224.688 110.414,224.454 109.949,224.287 109.460 C 224.120 108.971,223.701 108.145,223.356 107.624 C 223.012 107.104,222.730 106.599,222.730 106.503 C 222.730 106.073,218.771 102.163,218.130 101.959 C 217.867 101.876,217.651 101.712,217.651 101.595 C 217.651 101.479,217.137 101.172,216.509 100.914 C 215.881 100.656,215.367 100.362,215.366 100.261 C 215.366 100.160,214.708 99.887,213.905 99.653 C 213.102 99.420,212.216 99.081,211.937 98.900 C 211.657 98.719,210.629 98.439,209.651 98.279 C 208.673 98.118,207.644 97.855,207.365 97.695 C 206.869 97.411,192.717 97.194,190.349 97.434 M338.645 99.139 C 338.331 99.959,338.663 146.877,338.984 146.984 C 339.159 147.042,339.302 147.387,339.302 147.751 C 339.302 148.581,340.069 151.702,340.315 151.873 C 340.415 151.943,340.643 152.457,340.821 153.016 C 340.998 153.575,341.278 154.203,341.442 154.413 C 341.605 154.622,341.960 155.222,342.229 155.746 C 342.498 156.270,342.799 156.698,342.898 156.698 C 342.996 156.698,343.151 156.931,343.241 157.216 C 343.464 157.919,347.444 161.922,348.140 162.143 C 348.447 162.240,348.698 162.408,348.698 162.516 C 348.698 162.624,349.154 162.930,349.711 163.197 C 350.268 163.464,350.726 163.762,350.727 163.860 C 350.729 163.958,351.387 164.240,352.190 164.488 C 352.994 164.736,353.711 165.021,353.784 165.121 C 353.857 165.221,354.942 165.491,356.196 165.720 C 357.450 165.949,358.675 166.242,358.917 166.370 C 359.529 166.694,367.492 166.674,367.492 166.349 C 367.492 166.210,367.725 166.095,368.011 166.095 C 368.917 166.095,372.437 165.296,372.585 165.057 C 372.663 164.931,373.321 164.651,374.046 164.435 C 374.772 164.220,375.365 163.962,375.365 163.862 C 375.365 163.762,375.713 163.526,376.137 163.338 C 377.213 162.861,380.386 159.686,380.587 158.884 C 380.679 158.520,380.855 158.222,380.980 158.222 C 381.300 158.222,381.273 168.564,380.952 168.762 C 380.813 168.848,380.697 169.398,380.695 169.983 C 380.682 174.568,376.620 179.949,372.317 181.080 C 371.689 181.246,370.976 181.484,370.734 181.611 C 370.181 181.899,366.916 181.915,366.590 181.631 C 366.458 181.515,365.549 181.269,364.571 181.085 C 361.620 180.528,357.333 177.598,357.333 176.137 C 357.333 175.942,357.163 175.612,356.954 175.403 C 356.455 174.904,355.818 172.154,355.813 170.476 L 355.810 169.143 347.161 169.143 L 338.512 169.143 338.690 172.000 C 338.787 173.571,338.941 174.914,339.031 174.984 C 339.122 175.054,339.331 176.066,339.497 177.232 C 339.662 178.398,339.965 179.687,340.169 180.096 C 340.373 180.505,340.721 181.465,340.943 182.229 C 341.166 182.994,341.440 183.619,341.554 183.619 C 341.667 183.619,341.910 184.075,342.094 184.631 C 342.278 185.188,342.639 185.834,342.897 186.067 C 343.154 186.301,343.365 186.644,343.365 186.831 C 343.365 187.018,343.594 187.313,343.873 187.488 C 344.152 187.662,344.381 187.932,344.381 188.088 C 344.381 188.477,348.294 192.196,349.079 192.554 C 349.429 192.713,349.714 192.922,349.714 193.018 C 349.714 193.114,350.200 193.407,350.794 193.669 C 351.387 193.931,351.930 194.221,352.000 194.315 C 352.070 194.408,352.742 194.666,353.493 194.889 C 354.244 195.112,354.989 195.401,355.148 195.533 C 355.306 195.665,356.463 195.979,357.718 196.232 C 358.973 196.485,360.082 196.807,360.181 196.949 C 360.430 197.303,375.064 197.301,375.311 196.946 C 375.410 196.804,376.463 196.487,377.651 196.243 C 378.838 195.999,379.848 195.687,379.894 195.550 C 379.941 195.414,380.148 195.302,380.354 195.302 C 380.943 195.302,383.238 194.502,383.238 194.297 C 383.238 194.196,383.707 193.958,384.281 193.769 C 384.855 193.580,385.377 193.286,385.442 193.116 C 385.507 192.947,385.809 192.743,386.114 192.664 C 386.418 192.585,387.067 192.175,387.556 191.753 C 388.044 191.331,388.524 190.985,388.622 190.985 C 388.913 190.984,392.889 186.999,392.889 186.709 C 392.889 186.562,393.089 186.292,393.335 186.110 C 393.580 185.927,394.006 185.349,394.281 184.825 C 394.557 184.302,394.855 183.873,394.944 183.873 C 395.033 183.873,395.313 183.330,395.566 182.667 C 395.820 182.003,396.164 181.324,396.330 181.157 C 396.497 180.990,396.788 180.333,396.976 179.697 C 397.164 179.060,397.394 178.540,397.489 178.540 C 397.583 178.540,397.867 177.425,398.119 176.063 C 398.372 174.702,398.698 173.506,398.845 173.406 C 399.028 173.281,399.134 161.629,399.183 136.009 L 399.256 98.794 390.231 98.794 L 381.206 98.794 381.206 119.604 C 381.206 133.204,381.118 140.469,380.952 140.571 C 380.813 140.658,380.698 141.086,380.698 141.522 C 380.698 142.490,379.943 145.270,379.680 145.270 C 379.576 145.270,379.351 145.606,379.181 146.016 C 379.011 146.427,378.210 147.370,377.401 148.112 C 375.380 149.963,375.286 150.031,374.047 150.512 C 373.445 150.746,372.838 151.021,372.698 151.122 C 371.479 152.009,365.230 151.990,363.263 151.094 C 362.671 150.824,362.089 150.603,361.970 150.603 C 361.554 150.603,359.081 148.235,358.681 147.454 C 358.460 147.021,358.195 146.610,358.094 146.540 C 357.791 146.331,357.079 143.159,357.079 142.016 C 357.079 141.431,356.965 140.952,356.825 140.952 C 356.658 140.952,356.571 133.757,356.571 119.873 L 356.571 98.794 347.675 98.794 C 340.414 98.794,338.753 98.857,338.645 99.139 M208.710 138.667 C 208.647 140.832,208.470 142.832,208.316 143.111 C 208.162 143.390,207.845 144.248,207.612 145.016 C 207.378 145.784,207.112 146.470,207.020 146.540 C 206.928 146.610,206.556 147.124,206.193 147.683 C 205.830 148.241,205.031 149.201,204.417 149.814 C 203.804 150.428,202.844 151.227,202.286 151.590 C 201.727 151.952,201.213 152.318,201.143 152.402 C 201.073 152.486,200.444 152.767,199.746 153.026 C 199.048 153.286,198.419 153.575,198.349 153.669 C 197.849 154.343,191.310 154.676,189.333 154.128 C 185.230 152.989,183.329 147.118,185.797 143.207 C 186.136 142.671,186.413 142.178,186.413 142.112 C 186.413 141.821,187.668 140.782,188.582 140.317 C 189.131 140.038,189.719 139.680,189.888 139.523 C 190.058 139.365,190.631 139.155,191.162 139.055 C 191.693 138.956,192.584 138.673,193.143 138.428 C 193.702 138.182,195.159 137.831,196.381 137.648 C 197.603 137.465,198.603 137.238,198.603 137.143 C 198.603 137.048,199.803 136.765,201.270 136.514 C 202.737 136.262,203.937 135.958,203.937 135.838 C 203.937 135.718,204.161 135.619,204.436 135.619 C 205.219 135.619,207.301 134.845,208.000 134.293 C 208.842 133.630,208.854 133.707,208.710 138.667 " stroke="none" fill="#533be2" fill-rule="evenodd"></path><path id="path1" d="" stroke="none" fill="#533be2" fill-rule="evenodd"></path><path id="path2" d="" stroke="none" fill="#533be2" fill-rule="evenodd"></path><path id="path3" d="" stroke="none" fill="#533be2" fill-rule="evenodd"></path><path id="path4" d="" stroke="none" fill="#533be2" fill-rule="evenodd"></path></g></svg>